<svg width="200" height="172" viewBox="0 0 200 172" fill="none" xmlns="http://www.w3.org/2000/svg">
<path d="M108.796 0H88.9923C87.4464 0 86.485 1.6788 87.2672 3.01209L162.392 131.054C164.007 133.808 166.961 135.5 170.154 135.5H188.541C190.079 135.5 191.042 133.836 190.274 132.502L116.596 4.50998C114.99 1.71975 112.016 0 108.796 0Z" fill="url(#paint0_linear_1_9)"/>
<path d="M76.3992 16.4609L2.43301 143.327C0.936806 145.893 0.985772 149.077 2.56018 151.596L13.2359 168.678C14.0355 169.957 15.9098 169.924 16.664 168.617L76.772 64.4934C77.5408 63.1615 79.4626 63.1596 80.2341 64.4899L105.758 108.497C106.531 109.83 105.569 111.5 104.028 111.5H98.885C96.784 111.5 94.836 112.599 93.7495 114.397L82.8332 132.466C82.0279 133.799 82.9877 135.5 84.545 135.5H147.031C148.572 135.5 149.534 133.831 148.762 132.498L81.5872 16.4688C80.4337 14.4764 77.5587 14.472 76.3992 16.4609Z" fill="url(#paint1_linear_1_9)"/>
<path d="M31.032 165.477L80.9241 80.3929C82.0804 78.4209 84.9293 78.4151 86.0937 80.3824L95.2881 95.9178C96.9606 98.7438 96.9612 102.256 95.2896 105.083L72.2849 143.982C71.4964 145.315 72.4574 147 74.0064 147H194.238C196.562 147 198.004 149.528 196.82 151.528L187.614 167.084C185.994 169.821 183.049 171.5 179.868 171.5H34.4825C31.3913 171.5 29.4684 168.143 31.032 165.477Z" fill="url(#paint2_linear_1_9)"/>
<defs>
<linearGradient id="paint0_linear_1_9" x1="54" y1="44.5" x2="241" y2="-6.35526e-06" gradientUnits="userSpaceOnUse">
<stop stop-color="#D9D9D9"/>
<stop offset="0.4742"/>
</linearGradient>
<linearGradient id="paint1_linear_1_9" x1="75.25" y1="12" x2="-58" y2="181" gradientUnits="userSpaceOnUse">
<stop offset="0.0522585" stop-color="#006472"/>
<stop offset="1" stop-color="#0090AA"/>
</linearGradient>
<linearGradient id="paint2_linear_1_9" x1="12" y1="132" x2="191" y2="150.5" gradientUnits="userSpaceOnUse">
<stop stop-color="#193A6C"/>
<stop offset="1" stop-color="#00042A"/>
</linearGradient>
</defs>
</svg>
